<?xml version="1.0" encoding="utf-8"?>
<!-- Generator: Adobe Illustrator 27.5.0, SVG Export Plug-In . SVG Version: 6.00 Build 0)  -->
<svg version="1.1" id="Capa_1" xmlns="http://www.w3.org/2000/svg" xmlns:xlink="http://www.w3.org/1999/xlink" x="0px" y="0px"
	 viewBox="0 0 510.236 481.89" style="enable-background:new 0 0 510.236 481.89;" xml:space="preserve">
<g>
	<rect style="fill:none;" width="510.236" height="481.89"/>
	<path style="fill:#EDD3E6;" d="M246.021,347.999c24.303-26.727,37.989-94.098,89.416-77.667
		c18.961,6.058,30.773,25.215,50.908,30.08c23.344,5.64,43.978-1.942,61.978-17.152c54.066-45.686,53.586-162.848-17.984-192.629
		c-24.725-10.289-62.121-10.999-88.049-5.623c-18.168,3.767-30.688,7.185-44.564,19.817
		c-33.217,30.239-81.436,85.621-122.904,34.693c-27.287-33.513-71.575-56.71-108.949-20.197
		C8.041,175.818,8.291,309.226,73.816,357.551C73.816,357.551,169.663,449.734,246.021,347.999z"/>
</g>
<g>
	<path style="fill:#E5C7C0;" d="M443.004,427.835c0,6.68-84.12,12.096-187.886,12.096c-103.767,0-187.887-5.416-187.887-12.096
		c0-6.681,84.12-12.097,187.887-12.097C358.884,415.738,443.004,421.154,443.004,427.835z"/>
	<g>
		<g>
			<g>
				
					<rect x="216.9" y="336.107" transform="matrix(0.545 -0.8384 0.8384 0.545 -184.2183 341.8612)" style="fill:#F8B78F;" width="11.919" height="9.101"/>
				<path style="fill:#141C27;" d="M224.885,345.646l6.33,17.723l6.447,10.352c0,0,1.561,2.501-1.756,2.046l-14.963-9.723
					l-6.391-9.465l-5.041-7.875l7.754-8.008L224.885,345.646z"/>
			</g>
			<path style="fill:#694C8D;" d="M227.457,346.639l52.633-69.519l-28.078-14.144l-35.965,75.696
				C216.047,338.672,218.459,346.758,227.457,346.639z"/>
			<path style="fill:#694C8D;" d="M277.613,279.303l-73.812-48.014l31.785-5.421l44.484,39.231
				C280.07,265.099,284.357,275.113,277.613,279.303z"/>
		</g>
		<path style="fill:#853357;" d="M215.086,75.487c2.051-1.975,4.355-3.638,6.742-5.199c-0.041-0.159-0.08-0.318-0.115-0.481
			c-1.707-7.933-4.951-11.373-11.529-11.69c-10.928-0.528-18.666,4.66-21.811,14.43c-3.088,9.591-2.271,16.706-0.631,26.737
			c1.322,8.096,2.734,15.734,0.305,23.905c0,0-3.852,12.17-13.027,17.292c0,0,20.852,12.213,27.326-13.365
			c2.486-8.776-0.623-21.343-1.152-30.6c-0.443-7.786-2.336-22.616,9.189-23.453C212.422,72.914,213.789,74.129,215.086,75.487z"/>
		<path style="fill:#F8B78F;" d="M187.367,147.174l-25.561,33.191c0,0-2.553,2.768-0.576,7.975c0,0,1.211,8.555,14.545-2.801
			l25.119-23.166C200.895,162.372,202.426,141.529,187.367,147.174z"/>
		<path style="fill:#F8B78F;" d="M158.334,191.518l-14.412-13.254L130.867,161.5l3.193-3.29l16.725,11.734
			c7.143,5.657,11.459,8.915,11.459,8.915l8.969,10.128l-5.064,4.381C166.148,193.369,161.791,194.655,158.334,191.518z"/>
		<g>
			
				<line style="fill:none;stroke:#5B5196;stroke-width:12;stroke-linecap:round;stroke-linejoin:round;stroke-miterlimit:10;" x1="312.26" y1="278.359" x2="229.678" y2="341.957"/>
			<path style="fill:#D1D3D4;" d="M208.141,357.504c-0.896,1.611-0.318,3.641,1.289,4.536l12.504,6.968
				c1.609,0.897,3.639,0.318,4.535-1.291l0,0c0.898-1.609,0.32-3.639-1.291-4.536l-12.502-6.967
				C211.068,355.319,209.037,355.892,208.141,357.504L208.141,357.504z"/>
			<g>
				<g>
					
						<line style="fill:none;stroke:#D1D3D4;stroke-width:0.8179;stroke-miterlimit:10;" x1="381.158" y1="323.651" x2="327.842" y2="412.763"/>
					
						<line style="fill:none;stroke:#D1D3D4;stroke-width:0.8179;stroke-miterlimit:10;" x1="326.664" y1="324.377" x2="382.336" y2="412.038"/>
					
						<line style="fill:none;stroke:#D1D3D4;stroke-width:0.8179;stroke-miterlimit:10;" x1="363.271" y1="317.034" x2="345.727" y2="419.381"/>
					
						<line style="fill:none;stroke:#D1D3D4;stroke-width:0.8179;stroke-miterlimit:10;" x1="312.715" y1="337.384" x2="396.283" y2="399.029"/>
					
						<line style="fill:none;stroke:#D1D3D4;stroke-width:0.8179;stroke-miterlimit:10;" x1="344.205" y1="317.315" x2="364.793" y2="419.1"/>
					
						<line style="fill:none;stroke:#D1D3D4;stroke-width:0.8179;stroke-miterlimit:10;" x1="304.404" y1="354.547" x2="404.592" y2="381.868"/>
					
						<line style="fill:none;stroke:#D1D3D4;stroke-width:0.8179;stroke-miterlimit:10;" x1="304.703" y1="353.499" x2="404.295" y2="382.917"/>
					
						<line style="fill:none;stroke:#D1D3D4;stroke-width:0.8179;stroke-miterlimit:10;" x1="302.59" y1="369.534" x2="406.402" y2="366.879"/>
					
						<line style="fill:none;stroke:#D1D3D4;stroke-width:0.8179;stroke-miterlimit:10;" x1="306.33" y1="387.598" x2="402.666" y2="348.818"/>
					
						<line style="fill:none;stroke:#D1D3D4;stroke-width:0.8179;stroke-miterlimit:10;" x1="315.551" y1="402.546" x2="393.443" y2="333.87"/>
				</g>
				<g>
					<path style="fill:#242D37;" d="M294.951,367.842c-0.439-33.062,26.1-60.316,59.158-60.757
						c33.061-0.44,60.316,26.098,60.758,59.159c0.44,33.058-26.1,60.315-59.16,60.755C322.648,427.44,295.392,400.9,294.951,367.842
						z M304.178,367.72c0.373,27.972,23.432,50.428,51.406,50.055c27.975-0.372,50.43-23.435,50.057-51.407
						c-0.371-27.974-23.434-50.429-51.408-50.056C326.258,316.684,303.805,339.747,304.178,367.72z"/>
				</g>
			</g>
			<g>
				<g>
					
						<line style="fill:none;stroke:#D1D3D4;stroke-width:0.8179;stroke-miterlimit:10;" x1="181.574" y1="326.31" x2="128.26" y2="415.422"/>
					
						<line style="fill:none;stroke:#D1D3D4;stroke-width:0.8179;stroke-miterlimit:10;" x1="127.082" y1="327.037" x2="182.752" y2="414.697"/>
					
						<line style="fill:none;stroke:#D1D3D4;stroke-width:0.8179;stroke-miterlimit:10;" x1="163.691" y1="319.692" x2="146.143" y2="422.04"/>
					
						<line style="fill:none;stroke:#D1D3D4;stroke-width:0.8179;stroke-miterlimit:10;" x1="113.133" y1="340.043" x2="196.699" y2="401.688"/>
					
						<line style="fill:none;stroke:#D1D3D4;stroke-width:0.8179;stroke-miterlimit:10;" x1="144.621" y1="319.974" x2="165.211" y2="421.759"/>
					
						<line style="fill:none;stroke:#D1D3D4;stroke-width:0.8179;stroke-miterlimit:10;" x1="104.822" y1="357.207" x2="205.008" y2="384.526"/>
					
						<line style="fill:none;stroke:#D1D3D4;stroke-width:0.8179;stroke-miterlimit:10;" x1="105.119" y1="356.158" x2="204.711" y2="385.575"/>
					
						<line style="fill:none;stroke:#D1D3D4;stroke-width:0.8179;stroke-miterlimit:10;" x1="103.006" y1="372.193" x2="206.818" y2="369.539"/>
					
						<line style="fill:none;stroke:#D1D3D4;stroke-width:0.8179;stroke-miterlimit:10;" x1="106.75" y1="390.257" x2="203.084" y2="351.477"/>
					
						<line style="fill:none;stroke:#D1D3D4;stroke-width:0.8179;stroke-miterlimit:10;" x1="115.967" y1="405.205" x2="193.861" y2="336.529"/>
				</g>
				<g>
					<path style="fill:#242D37;" d="M95.369,370.501c-0.439-33.061,26.098-60.316,59.158-60.757
						c33.059-0.44,60.316,26.098,60.756,59.159c0.441,33.058-26.1,60.314-59.158,60.755
						C123.064,430.099,95.811,403.559,95.369,370.501z M104.594,370.378c0.373,27.973,23.434,50.429,51.408,50.056
						c27.975-0.373,50.428-23.436,50.055-51.407c-0.371-27.974-23.434-50.429-51.406-50.057
						C126.676,319.343,104.221,342.405,104.594,370.378z"/>
				</g>
			</g>
			
				<polyline style="fill:none;stroke:#5B5196;stroke-width:8.1787;stroke-linecap:round;stroke-linejoin:round;stroke-miterlimit:10;" points="
				354.895,365.929 305.441,258.981 313.592,255.494 307.861,242.774 			"/>
			
				<polyline style="fill:none;stroke:#5B5196;stroke-width:8;stroke-linecap:round;stroke-linejoin:round;stroke-miterlimit:10;" points="
				319.984,301.402 238.814,369.268 197,260.973 			"/>
			
				<line style="fill:none;stroke:#5B5196;stroke-width:8;stroke-linecap:round;stroke-linejoin:round;stroke-miterlimit:10;" x1="155.602" y1="368.583" x2="206.719" y2="284.168"/>
			<path style="fill:none;stroke:#5B5196;stroke-width:6.5429;stroke-miterlimit:10;" d="M387.713,314.217
				c-9.66-6.343-21.24-9.973-33.639-9.807c-33.061,0.44-59.598,27.694-59.158,60.756"/>
			<path style="fill:none;stroke:#5B5196;stroke-width:6.5429;stroke-miterlimit:10;" d="M216.414,366.212
				c-0.441-33.061-27.693-59.6-60.756-59.159c-12.396,0.165-23.879,4.102-33.363,10.699"/>
			<path style="fill:#303945;" d="M223.191,263.854l-38.135,0.508c-5.057,0.067-4.436-4.216-4.436-4.216l-0.086-6.411
				c0.121-4.993,4.318-4.551,4.318-4.551l30.564,4.441C215.418,253.625,223.064,254.362,223.191,263.854z"/>
			
				<line style="fill:none;stroke:#242D37;stroke-width:3;stroke-miterlimit:10;" x1="242.23" y1="360.036" x2="155.541" y2="364.029"/>
			
				<line style="fill:none;stroke:#242D37;stroke-width:3;stroke-miterlimit:10;" x1="242.57" y1="385.461" x2="156.387" y2="378.13"/>
			<g>
				<path style="fill:#D1D3D4;" d="M264.785,391.411c0.018,1.841,1.525,3.321,3.363,3.304l14.313-0.123
					c1.842-0.017,3.324-1.522,3.309-3.361l0,0c-0.018-1.844-1.523-3.323-3.365-3.309l-14.313,0.124
					C266.252,388.062,264.77,389.567,264.785,391.411L264.785,391.411z"/>
				<path style="fill:#D1D3D4;" d="M225.023,372.984c0.129,9.592,8.014,17.267,17.609,17.14c9.596-0.128,17.268-8.011,17.141-17.603
					c-0.129-9.597-8.008-17.272-17.604-17.145C232.574,355.504,224.896,363.387,225.023,372.984z"/>
				<path style="fill:#B6B8BA;" d="M229.689,372.922c0.094,7.018,5.859,12.633,12.881,12.539c7.021-0.093,12.635-5.86,12.541-12.878
					c-0.094-7.023-5.859-12.642-12.881-12.548C235.209,360.129,229.596,365.899,229.689,372.922z"/>
				<path style="fill:#A1A3A6;" d="M235.467,372.845c0.051,3.826,3.197,6.891,7.025,6.84c3.828-0.051,6.891-3.198,6.84-7.024
					c-0.051-3.831-3.197-6.895-7.023-6.844C238.479,365.868,235.416,369.014,235.467,372.845z"/>
				
					<line style="fill:none;stroke:#D1D3D4;stroke-width:4.9072;stroke-linecap:round;stroke-linejoin:round;stroke-miterlimit:10;" x1="242.4" y1="372.752" x2="275.277" y2="391.32"/>
			</g>
			<g>
				<path style="fill:#D1D3D4;" d="M166.725,370.188c0.082,6.13-4.822,11.165-10.951,11.247
					c-6.131,0.082-11.166-4.821-11.248-10.951c-0.08-6.13,4.822-11.165,10.951-11.247
					C161.607,359.155,166.643,364.058,166.725,370.188z"/>
				<path style="fill:#B6B8BA;" d="M161.932,370.252c0.047,3.482-2.74,6.344-6.223,6.391c-3.482,0.047-6.344-2.74-6.391-6.223
					c-0.047-3.483,2.74-6.345,6.223-6.392C159.023,363.983,161.887,366.769,161.932,370.252z"/>
			</g>
		</g>
		<path style="fill:#303945;" d="M300.791,239.173c0.045,3.494,2.914,6.284,6.404,6.238c3.494-0.046,6.287-2.912,6.24-6.406
			c-0.047-3.49-2.914-6.286-6.408-6.24C303.535,232.811,300.744,235.684,300.791,239.173z"/>
		<g>
			<g>
				
					<rect x="261.02" y="363.68" transform="matrix(0.9999 -0.0133 0.0133 0.9999 -4.8943 3.566)" style="fill:#F8B78F;" width="9.102" height="11.919"/>
				<path style="fill:#141C27;" d="M270.027,372.66l15.117,11.212l11.113,5.018c0,0,2.688,1.212-0.32,2.678l-17.844,0.237
					l-10.574-4.316l-8.568-3.742l1.992-10.967L270.027,372.66z"/>
			</g>
			<path style="fill:#945EA7;" d="M272.244,371.038l2.113-99.864l-54.686-45.229l-28.145-3.176
				c-5.813,11.446-1.635,26.336-1.635,26.336l63.76,37.333l-1.697,18.072l4.211,66.742
				C256.166,371.251,263.025,373.487,272.244,371.038z"/>
		</g>
		<g>
			<path style="fill:#853357;" d="M229.785,71.547c5.455-1.835,11.42-0.324,15.428,3.743c4.865,4.94,5.193,11.064,3.609,17.203
				c-1.047,4.052-5.957,11.095-11.018,7.964c-4.309-2.666-7.404-7.732-8.668-12.568C228.746,86.397,230.166,71.6,229.785,71.547z"/>
			<g>
				<path style="fill:#F8B78F;" d="M310.625,237.097c-2.514,3.182,1.553,4.213,1.553,4.213c4.738-0.207,6.566-3.352,6.395-6.312
					c0,0-0.25-5.729-8.143-5.906c-3.277,0.229-3.535,1.488-2.775,5.121C307.654,234.214,310.517,234.672,310.625,237.097z"/>
				<path style="fill:#F8B78F;" d="M245.332,142.994l27.264,37.71l35.494,49.017l-0.436,4.493l-41.574-39.556l-33.517-39.842
					C232.563,154.816,227.207,134.89,245.332,142.994z"/>
			</g>
			<path style="fill:#F8B78F;" d="M192.313,204.272c1.096-2.529,2.428-5.22,4.061-8.077l22.949,2.515
				c-0.156,1.537-0.463,4.456-0.914,8.42L192.313,204.272z"/>
			<path style="fill:#F8B78F;" d="M217.16,137.412c0,0-2.127,23.444-17.852,16.481c0,0-9.291-13.529,4.313-20.868L217.16,137.412z"
				/>
			<g>
				<g>
					
						<rect x="213.855" y="118.463" transform="matrix(0.1089 -0.994 0.994 0.1089 74.9136 333.1676)" style="fill:#F8B78F;" width="18.88" height="12.67"/>
				</g>
				<g>
					<path style="fill:#F6A47A;" d="M229.754,124.005l0.865-7.901l-12.594-1.38l-1.029,9.383
						C221.445,124.637,223.295,124.797,229.754,124.005z"/>
				</g>
			</g>
			<path style="fill:#F8B78F;" d="M245.332,142.994c-2.479-4.945-7.033-6.712-7.033-6.712l-10.785-5.397l-10.73-1.176l-11.691,2.934
				c0,0-4.828,0.739-8.32,5.031L245.332,142.994z"/>
			<path style="fill:#F17C79;" d="M192.604,204.879"/>
			<path style="fill:#F8B78F;" d="M214.197,112.085c0.385,1.091,0.951,2.115,1.779,3.032c3.682,4.08,8.775,7.115,14.318,7.508
				c14.914-5.298,12.191-33.486,12.191-33.486c-1.232-13.484-12.637-14.26-12.637-14.26c-8.588-0.985-16.736,2.53-18.701,11.512
				c-0.752,3.441-0.346,7.222-0.418,10.709c-0.053,2.568,0.082,5.134,0.727,7.628C212.113,107.272,213.332,109.614,214.197,112.085z
				"/>
			<path style="fill:#853357;" d="M241.289,84.592c-2.09-2.879-10.582-3.299-12.26-0.587c-1.984,3.207-5.488,3.341-8.646,6.116
				c-2.984,2.621-1.742,7.934-3.813,11.607c-1.971,3.498-1.863,7.134-2.457,10.945c-7.627-2.293-11.598-14.759-12.195-21.611
				c-0.844-9.704,5.625-19.388,15.68-20.668c5.439-0.692,12.248-1.275,17.262,0.783c5.912,2.426,7.055,7.396,7.182,13.655
				L241.289,84.592z"/>
			<path style="fill:#F8B78F;" d="M216.709,104.701c0,0,0.524-10.46-6.543-8.358c0,0-2.279,0.771-1.344,5.194
				c0,0,1.912,7.7,6.768,6.133L216.709,104.701z"/>
			<path style="fill:#26719F;" d="M237.264,135.825c0,0,6.004,1.527,11.238,8.9l13.277,17.14c0,0-6.145,14.464-14.885,16.314
				l-15.732-21.471C231.162,156.707,222.719,145.235,237.264,135.825z"/>
			<path style="fill:#0081A9;" d="M185.434,219.082c4.068-8.651,10.262-42.425,10.262-42.425l2.176-23.123l-1.652-9.501
				c-2.688-9.305,3.27-11.14,3.27-11.14l14.256-2.42c0,0,1.16,6.948,11.801,6.827c0,0,8.012,0.035,5.334-4.731l9.807,4.699
				c0,0,3.986,7.393,4.646,12.955c2.49,7.009,2.553,8.228,0.016,20.122c0,0-4.811,16.406-3.498,58.626
				C241.85,228.972,185.836,237.498,185.434,219.082z"/>
			<path style="fill:#26719F;" d="M199.092,133.085c0,0-5.777,0.775-11,9.196l-12.814,17.487c0,0,6.527,14.296,15.314,15.912
				l15.156-21.882C205.748,153.798,213.881,142.105,199.092,133.085z"/>
		</g>
		<g>
			<g>
				<path style="fill:#F8B78F;" d="M133.895,148.179c0.354,0.713,0.061,1.576-0.652,1.927l0,0c-0.711,0.352-1.803-0.137-2.154-0.85
					l-1.74-8.303c-0.209-1.333-0.037-1.698,0.762-1.859l0,0c0.979-0.012,1.061,0.326,1.365,1.194L133.895,148.179z"/>
				<path style="fill:#F8B78F;" d="M130.092,148.549c0.352,0.711,0.059,1.574-0.652,1.926l0,0c-0.713,0.352-1.49-0.008-1.842-0.722
					l-4.078-9.221c-0.354-0.712-0.408-1.387,0.305-1.738l0,0c0.816-0.447,1.287,0.09,1.822,1.072L130.092,148.549z"/>
				<path style="fill:#F8B78F;" d="M128.52,152.097c0.354,0.712,0.061,1.575-0.652,1.928l0,0c-0.713,0.351-1.574,0.059-1.928-0.653
					l-5.516-8.552c-0.352-0.712-0.406-1.389,0.307-1.74l0,0c0.814-0.445,1.322,0.406,1.82,1.072L128.52,152.097z"/>
				<path style="fill:#F8B78F;" d="M128.064,157.127c0.352,0.712,0.059,1.574-0.652,1.927c-0.715,0.352-1.576,0.059-1.928-0.654
					c0,0-5.572-5.656-5.58-5.664c-0.389-0.44-0.271-1.232,0.236-1.495c0.76-0.391,1.145,0.101,1.891,0.828L128.064,157.127z"/>
				<path style="fill:#F8B78F;" d="M125.33,154.834l0.154,3.566c0.775,1.305,2.193,2.598,3.277,3.477
					c0.875,0.446,2.852,1.698,3.807,1.808c2.77,0.319,3.389-1.258,4.84-3.125c0.605-2.491-0.092-6.659-0.092-6.659l-2.561-3.028
					l-1.248-3.959l-2.797-0.074l0.414,2.663c0,0-0.096,0.493-0.484,0.149l-0.979-1.964l-2.453,1.189l0.891,2.008
					c0,0,0.006,0.452-0.35,0.215l-1.176-1.592l-2.063,1.617l0.912,1.542C125.424,152.666,126.277,154.872,125.33,154.834z"/>
			</g>
			<path style="fill:#F8B78F;" d="M137.301,147.372c-1.705,1.396-2.479,3.005-2.545,3.5l2.865,4.111
				c-0.012-0.49-0.035-0.83-0.035-0.83c-0.031-3.377,2.166-7.011,2.166-7.011C138.516,145.898,137.301,147.372,137.301,147.372z"/>
		</g>
		<path style="fill:#853357;" d="M225.879,97.797c2.902-0.355,5.984-2.853,8.289-4.702c3.568-2.863,8.033-9.207,6.547-13.912
			c-2.727-8.634-17.287-5.943-22.74-2.282c-2.338,1.57-6.012,5.243-6.602,8.073C209.59,93.572,218.574,98.691,225.879,97.797z"/>
		<g>
			<g>
				<g>
					<g>
						<g>
							<g>
								<g>
									<g>
										<path style="fill:#F5A584;" d="M182.123,302.072l-0.557,7.497l1.297,11.732l5.145,0.002l1.373-24.509
											C189.381,296.793,181.787,302.017,182.123,302.072z"/>
									</g>
								</g>
								<polygon style="fill:#F5A584;" points="189.381,296.793 179.949,293.146 178.205,302.07 182.123,302.072 								"/>
							</g>
							<path style="fill:#2D73B3;" d="M189.381,296.793l-14.92-6.499l0.318-8.322l-18.346-0.01l-0.01,21.278l24.834,0.012
								l-0.338,6.193l0.678,5c0,0,2.723,1.065,7.502-0.559L189.381,296.793z"/>
						</g>
						<g>
							<g>
								<g>
									<g>
										<path style="fill:#F8B78F;" d="M173.588,303.244l-0.555,7.497l1.303,11.73h5.146l3.105-25.196
											C182.588,297.275,173.252,303.189,173.588,303.244z"/>
									</g>
								</g>
								<polygon style="fill:#F8B78F;" points="182.588,297.275 172.025,293.29 169.67,303.244 173.588,303.244 								"/>
							</g>
							<path style="fill:#0087C2;" d="M182.588,297.275l-17.15-6.47l-0.043-8.835h-15.41v13.218c-0.24,8.627,7.127,8.06,7.127,8.06
								l15.922-0.005l-0.715,7.198l0.715,3.625c0,0,3.66,2.25,8.16,0L182.588,297.275z"/>
						</g>
					</g>
					<g>
						<path style="fill:#D83633;" d="M181.188,314.313h9.604l-1,9.253l3.379,1.462c0,0,1.996,1.059,0.871,2.735
							c0,0-0.76,1.341-6.254,0.759c0,0-6.498,0.146-5.934-2.895L181.188,314.313z"/>
						<path style="fill:#FBFBEA;" d="M179.992,312.94l0.332,2.458c0,0,0.248,0.831,0.979,0.874h9.254c0,0,0.414-0.122,0.811-1.041
							l0.313-2.184c0,0,0.209-0.865-0.803-0.903h-9.615C181.262,312.144,179.852,311.905,179.992,312.94z"/>
					</g>
					<g>
						<path style="fill:#D83633;" d="M172.264,314.313h9.604l-1,9.253l3.379,1.462c0,0,1.996,1.059,0.871,2.735
							c0,0-0.76,1.341-6.256,0.759c0,0-6.498,0.146-5.932-2.895L172.264,314.313z"/>
						<path style="fill:#FBFBEA;" d="M171.066,312.94l0.334,2.458c0,0,0.248,0.831,0.979,0.874h9.254c0,0,0.414-0.122,0.809-1.041
							l0.313-2.184c0,0,0.209-0.865-0.801-0.903h-9.615C172.338,312.144,170.928,311.905,171.066,312.94z"/>
					</g>
					<path style="fill:#754631;" d="M133.75,252.879c8.219,1.983,12.939-3.307,12.465-15.154
						c-0.318-7.878,0.475-17.634,0.293-23.798h-0.572c-7.936,2.659-11.563,6.961-11.182,15.769
						c0.152,3.533,2.293,7.751,2.438,11.323C137.191,241.019,138.625,248.823,133.75,252.879z"/>
					<g>
						<g>
							<path style="fill:#F8B78F;" d="M187.861,285.171c0,0-9.639-5.62-10.975-20.857c0,0-3.445-2.575-4.592,0.813
								c0,0,0.145,13.94,13.6,22.422C185.895,287.549,188.854,288.393,187.861,285.171z"/>
							<g>
								<path style="fill:#F8B78F;" d="M189.893,292.297c-2.338-0.736-3.666-2.208-3.666-2.208s-1.498-1.495-1.305-2.89
									c0,0,0.004-2.451,2.355-2.715c0.594-0.066,1.176,0.304,1.701,0.527c0.039,0.015,0.072,0.03,0.109,0.045
									c0.609,0.25,1.244,0.466,1.904,0.506c1.119,0.06,1.043,0.922,1.043,0.922c-0.018,0.414-0.412,0.676-0.807,0.639
									c-0.48-0.051-0.965-0.125-1.449-0.184c-0.742,0.059-0.406,0.495-0.406,0.495c1.303,0.86,3.096,1.601,3.096,1.601
									c0.576,0.381,0.338,0.887,0.338,0.887s-0.053,0.6-1.66,0.05c0,0-1.447-0.537-2.572-1.429c0.619,0.68,2.68,1.641,2.68,1.641
									c1.045,0.239,0.641,0.979,0.641,0.979c-0.609,0.762-2.25-0.329-2.25-0.329c-1.484-0.928-2.127-1.256-2.127-1.256
									l2.398,1.502c0,0,0.928,0.388,0.725,0.864C190.641,291.945,190.553,292.397,189.893,292.297z"/>
							</g>
						</g>
					</g>
					<path style="fill:#EE4498;" d="M179.383,269.119c-0.121-0.421-2.986-9.471-3.086-9.888c0,0-0.986-3.304-4.793-4.19
						c0,0-4.086,3.632-1.77,10.018c0,0,3.049,17.983,14.631,22.065c0,0,2.584-0.25,2.834-3.083
						C187.199,284.041,180.82,273.499,179.383,269.119z"/>
					<g>
						<rect x="158.896" y="249.678" style="fill:#FBB88E;" width="8.137" height="4.647"/>
						<path style="fill:#E69D82;" d="M167.033,251.058v-1.38h-8.137v2.83C162.094,252.814,164.824,252.16,167.033,251.058z"/>
					</g>
					<path style="fill:#FBB88E;" d="M175.16,267.428c-0.059-1.408-0.236-3.93-0.313-5.5c0-5.13-2.064-6.416-2.064-6.416l-5.75-2.225
						h-8.137l-6.182,1.42c0,0-1.922,0.4-2.693,2.865c-0.125,3.656-0.162,6.878-0.164,9.855H175.16z"/>
					<path style="fill:#EE4498;" d="M165.223,255.584c-5.438,0.469-7.344-2.063-7.344-2.063l-5.164,1.186c0,0-1.922,0.4-2.693,2.865
						c-0.611,14.287-1.271,21.51-1.033,31.696c0,0,26.172,8.007,26.912-0.75c1.195-8.211-0.355-15.592,0-24.973
						c0.006-5.973-3.262-8.158-3.262-8.158l-4.857-1.82C167.781,253.566,168.672,255.287,165.223,255.584z"/>
					<path style="fill:#F8B78F;" d="M160.904,250.678c-6.689-2.108-14.359-4.244-14.213-20.664
						c0.09-9.837,6.088-14.345,16.123-14.345c5.014,0,11.965,2.192,14.637,5.395v15.248c0,0,2.031,9.705-8.289,13.602
						C169.162,249.914,165.91,252.257,160.904,250.678z"/>
					<g>
						<g>
							<path style="fill:#F8B78F;" d="M148.107,291.378c0,0-2.746-11.943,5.471-24.843c0,0-1.795-5.04-4.77-3.051
								c0,0-9.219,13.662-3.711,28.583C145.098,292.068,146.934,294.539,148.107,291.378z"/>
							<g>
								<path style="fill:#F8B78F;" d="M145.381,298.269c-1.406-2.008-1.564-3.984-1.564-3.984s-0.279-2.098,0.725-3.086
									c0,0,1.496-1.944,3.52-0.721c0.512,0.309,0.75,0.957,1.031,1.456c0.021,0.035,0.039,0.068,0.059,0.102
									c0.33,0.57,0.701,1.127,1.201,1.561c0.854,0.73,0.268,1.367,0.268,1.367c-0.268,0.316-0.74,0.285-1.025,0.016
									c-0.354-0.334-0.695-0.688-1.041-1.029c-0.623-0.404-0.623,0.147-0.623,0.147c0.506,1.476,1.48,3.154,1.48,3.154
									c0.227,0.653-0.27,0.909-0.27,0.909s-0.41,0.443-1.35-0.972c0,0-0.82-1.307-1.17-2.699c0.076,0.916,1.125,2.934,1.125,2.934
									c0.684,0.826-0.088,1.165-0.088,1.165c-0.945,0.234-1.584-1.63-1.584-1.63c-0.611-1.639-0.922-2.291-0.922-2.291
									l0.988,2.652c0,0,0.5,0.872,0.049,1.127C146.189,298.445,145.844,298.75,145.381,298.269z"/>
							</g>
						</g>
					</g>
					<path style="fill:#EE4498;" d="M146.164,260.179c2.824-6.659,7.855-5.239,7.855-5.239s3.846,1.721,2.492,6.465
						c0,0-9.213,15.411-8.051,28.161c0,0-1.457,1.75-4.68,1.074C143.781,290.64,136.561,276.36,146.164,260.179z"/>
					<path style="fill:#88523B;" d="M164.859,220.521c-6.326,1.173-7.922,5.501-11.182,10.321c-2.676,3.954-4.27,7.212-4.652,12.02
						c-2.988-1.957-3.067-3.933-5.152-8.484c-2.063-4.499-1.176-11.431-0.092-16.009c1.445-6.099,6.684-9.155,12.252-8.893
						c3.434,0.162,2.904,2.056,5.457,4.378c2.354,2.14,1.748,3.106,2.795,5.519L164.859,220.521z"/>
					<g>
						<g>
							<g>
								<g>
									<path style="fill:#F8B78F;" d="M146.578,236.241c0.16,1.979,1.705,3.522,3.447,3.442c1.738-0.079,3.021-1.747,2.857-3.727
										c-0.16-1.979-1.703-3.52-3.443-3.442C147.697,232.593,146.418,234.262,146.578,236.241z"/>
								</g>
							</g>
						</g>
					</g>
					<path style="fill:#88523B;" d="M158.656,221.267c2.574,1.417,4.268,1.835,7.209,1.835c2.949,0,7.164,0.063,9.619,2.151
						c1.578,1.577,1.578,2.867,1.578,6.308c0,1.689-0.076,3.726,0.551,6.71c0.777-0.866,1.35-1.805,1.615-2.983
						c1.863-8.251,2.84-9.373,1.723-14.977c-0.996-5.006-3.689-10.953-8.744-12.11c-4.223-0.966-8.469-1.904-12.764-0.832
						c-2.01,0.501-4.594,0.595-5.73,2.544C150.822,214.872,154.379,218.914,158.656,221.267z"/>
				</g>
			</g>
			<path style="fill:#303945;" d="M191.402,331.353h-20.607v-18.647h-29.42c-4.533,0.627-5.393-5.016-5.393-5.016l-12.219-57.36
				c9.621-1.004,10.932,6.431,10.932,6.431l7.074,28.936h19.41c18.646,0.643,17.361,18.648,17.361,18.648v7.717v13.504h6.584
				C185.125,325.566,192.576,325.926,191.402,331.353z"/>
		</g>
	</g>
</g>
</svg>
